Input #0, lavfi, from 'rgbtestsrc=duration=60:size=1920x1080:rate=30':
  Duration: N/A, start: 0.000000, bitrate: N/A
  Stream #0:0: Video: rawvideo (RGBA / 0x41424752), rgba, 1920x1080 [SAR 1:1 DAR 16:9], 30 tbr, 30 tbn, 30 tbc
Stream mapping:
  Stream #0:0 -> #0:0 (rawvideo (native) -> h264 (h264_nvenc))
Press [q] to stop, [?] for help
Output #0, mp4, to './test_results/temp_tests_gpu/test_test_50_12/output.mp4':
  Metadata:
    encoder         : Lavf58.76.100
  Stream #0:0: Video: h264 (Main) (avc1 / 0x31637661), rgb0(pc, gbr/unknown/unknown, progressive), 1280x720 [SAR 1:1 DAR 16:9], q=2-31, 30 fps, 15360 tbn
    Metadata:
      encoder         : Lavc58.134.100 h264_nvenc
    Side data:
      cpb: bitrate max/min/avg: 3000000/0/0 buffer size: 4000000 vbv_delay: N/A
frame=    1 fps=0.0 q=0.0 size=       0kB time=00:00:00.00 bitrate=N/A speed=N/A    frame=    2 fps=1.0 q=0.0 size=       0kB time=00:00:00.00 bitrate=N/A speed=   0x    frame=   20 fps=7.7 q=23.0 size=       0kB time=00:00:00.56 bitrate=   0.7kbits/s speed=0.219x    frame=   40 fps= 13 q=23.0 size=       0kB time=00:00:01.23 bitrate=   0.3kbits/s speed=0.397x    frame=   60 fps= 17 q=23.0 size=       0kB time=00:00:01.90 bitrate=   0.2kbits/s speed=0.523x    frame=   78 fps= 19 q=23.0 size=       0kB time=00:00:02.50 bitrate=   0.2kbits/s speed=0.601x    frame=   95 fps= 20 q=23.0 size=       0kB time=00:00:03.06 bitrate=   0.1kbits/s speed=0.657x    frame=  112 fps= 22 q=23.0 size=       0kB time=00:00:03.63 bitrate=   0.1kbits/s speed=0.702x    frame=  127 fps= 22 q=23.0 size=       0kB time=00:00:04.13 bitrate=   0.1kbits/s speed=0.728x    frame=  141 fps= 23 q=23.0 size=       0kB time=00:00:04.60 bitrate=   0.1kbits/s speed=0.743x    frame=  157 fps= 23 q=23.0 size=       0kB time=00:00:05.13 bitrate=   0.1kbits/s speed=0.766x    frame=  171 fps= 24 q=23.0 size=       0kB time=00:00:05.60 bitrate=   0.1kbits/s speed=0.772x    frame=  184 fps= 24 q=23.0 size=       0kB time=00:00:06.03 bitrate=   0.1kbits/s speed=0.776x    frame=  198 fps= 24 q=23.0 size=       0kB time=00:00:06.50 bitrate=   0.1kbits/s speed=0.784x    frame=  213 fps= 24 q=23.0 size=       0kB time=00:00:07.00 bitrate=   0.1kbits/s speed=0.794x    frame=  226 fps= 24 q=23.0 size=       0kB time=00:00:07.43 bitrate=   0.1kbits/s speed=0.798x    frame=  239 fps= 24 q=23.0 size=       0kB time=00:00:07.86 bitrate=   0.0kbits/s speed=0.801x    frame=  252 fps= 24 q=23.0 size=       0kB time=00:00:08.30 bitrate=   0.0kbits/s speed= 0.8x    frame=  266 fps= 24 q=23.0 size=       0kB time=00:00:08.76 bitrate=   0.0kbits/s speed=0.806x    frame=  279 fps= 24 q=23.0 size=       0kB time=00:00:09.20 bitrate=   0.0kbits/s speed=0.807x    frame=  292 fps= 24 q=23.0 size=       0kB time=00:00:09.63 bitrate=   0.0kbits/s speed=0.808x    frame=  306 fps= 25 q=23.0 size=       0kB time=00:00:10.10 bitrate=   0.0kbits/s speed=0.811x    frame=  321 fps= 25 q=23.0 size=       0kB time=00:00:10.60 bitrate=   0.0kbits/s speed=0.817x    frame=  336 fps= 25 q=23.0 size=       0kB time=00:00:11.10 bitrate=   0.0kbits/s speed=0.823x    frame=  352 fps= 25 q=23.0 size=       0kB time=00:00:11.63 bitrate=   0.0kbits/s speed=0.831x    frame=  368 fps= 25 q=23.0 size=       0kB time=00:00:12.16 bitrate=   0.0kbits/s speed=0.838x    frame=  385 fps= 26 q=23.0 size=       0kB time=00:00:12.73 bitrate=   0.0kbits/s speed=0.848x    frame=  402 fps= 26 q=23.0 size=       0kB time=00:00:13.30 bitrate=   0.0kbits/s speed=0.855x    frame=  420 fps= 26 q=23.0 size=       0kB time=00:00:13.90 bitrate=   0.0kbits/s speed=0.865x    frame=  436 fps= 26 q=23.0 size=       0kB time=00:00:14.43 bitrate=   0.0kbits/s speed=0.871x    frame=  453 fps= 26 q=23.0 size=       0kB time=00:00:15.00 bitrate=   0.0kbits/s speed=0.877x    frame=  469 fps= 27 q=23.0 size=       0kB time=00:00:15.53 bitrate=   0.0kbits/s speed=0.883x    frame=  486 fps= 27 q=23.0 size=       0kB time=00:00:16.10 bitrate=   0.0kbits/s speed=0.889x    frame=  501 fps= 27 q=23.0 size=       0kB time=00:00:16.60 bitrate=   0.0kbits/s speed=0.892x    frame=  516 fps= 27 q=23.0 size=       0kB time=00:00:17.10 bitrate=   0.0kbits/s speed=0.893x    frame=  527 fps= 27 q=23.0 size=       0kB time=00:00:17.46 bitrate=   0.0kbits/s speed=0.889x    frame=  540 fps= 27 q=23.0 size=       0kB time=00:00:17.90 bitrate=   0.0kbits/s speed=0.887x    frame=  554 fps= 27 q=23.0 size=       0kB time=00:00:18.36 bitrate=   0.0kbits/s speed=0.888x    frame=  568 fps= 27 q=23.0 size=       0kB time=00:00:18.83 bitrate=   0.0kbits/s speed=0.889x    frame=  583 fps= 27 q=23.0 size=       0kB time=00:00:19.33 bitrate=   0.0kbits/s speed=0.891x    frame=  598 fps= 27 q=23.0 size=       0kB time=00:00:19.83 bitrate=   0.0kbits/s speed=0.893x    frame=  613 fps= 27 q=23.0 size=       0kB time=00:00:20.33 bitrate=   0.0kbits/s speed=0.896x    frame=  628 fps= 27 q=23.0 size=       0kB time=00:00:20.83 bitrate=   0.0kbits/s speed=0.897x    frame=  644 fps= 27 q=23.0 size=       0kB time=00:00:21.36 bitrate=   0.0kbits/s speed=0.901x    frame=  660 fps= 27 q=23.0 size=       0kB time=00:00:21.90 bitrate=   0.0kbits/s speed=0.904x    frame=  677 fps= 27 q=23.0 size=       0kB time=00:00:22.46 bitrate=   0.0kbits/s speed=0.908x    frame=  695 fps= 28 q=23.0 size=       0kB time=00:00:23.06 bitrate=   0.0kbits/s speed=0.914x    frame=  714 fps= 28 q=23.0 size=       0kB time=00:00:23.70 bitrate=   0.0kbits/s speed=0.92x    frame=  734 fps= 28 q=23.0 size=       0kB time=00:00:24.36 bitrate=   0.0kbits/s speed=0.928x    frame=  753 fps= 28 q=23.0 size=       0kB time=00:00:25.00 bitrate=   0.0kbits/s speed=0.934x    frame=  772 fps= 28 q=23.0 size=       0kB time=00:00:25.63 bitrate=   0.0kbits/s speed=0.94x    frame=  791 fps= 28 q=23.0 size=       0kB time=00:00:26.26 bitrate=   0.0kbits/s speed=0.946x    frame=  811 fps= 29 q=23.0 size=       0kB time=00:00:26.93 bitrate=   0.0kbits/s speed=0.952x    frame=  831 fps= 29 q=23.0 size=       0kB time=00:00:27.60 bitrate=   0.0kbits/s speed=0.958x    frame=  851 fps= 29 q=23.0 size=       0kB time=00:00:28.26 bitrate=   0.0kbits/s speed=0.964x    frame=  870 fps= 29 q=23.0 size=       0kB time=00:00:28.90 bitrate=   0.0kbits/s speed=0.969x    frame=  889 fps= 29 q=23.0 size=       0kB time=00:00:29.53 bitrate=   0.0kbits/s speed=0.973x    frame=  908 fps= 29 q=23.0 size=       0kB time=00:00:30.16 bitrate=   0.0kbits/s speed=0.977x    frame=  927 fps= 30 q=23.0 size=       0kB time=00:00:30.80 bitrate=   0.0kbits/s speed=0.981x    frame=  946 fps= 30 q=23.0 size=       0kB time=00:00:31.43 bitrate=   0.0kbits/s speed=0.985x    frame=  966 fps= 30 q=23.0 size=       0kB time=00:00:32.10 bitrate=   0.0kbits/s speed=0.99x    frame=  986 fps= 30 q=23.0 size=       0kB time=00:00:32.76 bitrate=   0.0kbits/s speed=0.994x    frame= 1006 fps= 30 q=23.0 size=       0kB time=00:00:33.43 bitrate=   0.0kbits/s speed=0.999x    frame= 1025 fps= 30 q=23.0 size=       0kB time=00:00:34.06 bitrate=   0.0kbits/s speed=   1x    frame= 1042 fps= 30 q=23.0 size=       0kB time=00:00:34.63 bitrate=   0.0kbits/s speed=   1x    frame= 1059 fps= 30 q=23.0 size=       0kB time=00:00:35.20 bitrate=   0.0kbits/s speed=1.01x    frame= 1077 fps= 30 q=23.0 size=       0kB time=00:00:35.80 bitrate=   0.0kbits/s speed=1.01x    frame= 1096 fps= 30 q=23.0 size=       0kB time=00:00:36.43 bitrate=   0.0kbits/s speed=1.01x    frame= 1114 fps= 30 q=23.0 size=       0kB time=00:00:37.03 bitrate=   0.0kbits/s speed=1.01x    frame= 1133 fps= 31 q=23.0 size=       0kB time=00:00:37.66 bitrate=   0.0kbits/s speed=1.02x    frame= 1153 fps= 31 q=23.0 size=       0kB time=00:00:38.33 bitrate=   0.0kbits/s speed=1.02x    frame= 1173 fps= 31 q=23.0 size=       0kB time=00:00:39.00 bitrate=   0.0kbits/s speed=1.02x    frame= 1193 fps= 31 q=23.0 size=       0kB time=00:00:39.66 bitrate=   0.0kbits/s speed=1.03x    frame= 1213 fps= 31 q=23.0 size=       0kB time=00:00:40.33 bitrate=   0.0kbits/s speed=1.03x    frame= 1233 fps= 31 q=23.0 size=       0kB time=00:00:41.00 bitrate=   0.0kbits/s speed=1.03x    frame= 1253 fps= 31 q=23.0 size=       0kB time=00:00:41.66 bitrate=   0.0kbits/s speed=1.04x    frame= 1273 fps= 31 q=23.0 size=       0kB time=00:00:42.33 bitrate=   0.0kbits/s speed=1.04x    frame= 1293 fps= 31 q=23.0 size=       0kB time=00:00:43.00 bitrate=   0.0kbits/s speed=1.04x    frame= 1313 fps= 31 q=23.0 size=       0kB time=00:00:43.66 bitrate=   0.0kbits/s speed=1.05x    frame= 1333 fps= 32 q=23.0 size=       0kB time=00:00:44.33 bitrate=   0.0kbits/s speed=1.05x    frame= 1353 fps= 32 q=23.0 size=       0kB time=00:00:45.00 bitrate=   0.0kbits/s speed=1.05x    frame= 1373 fps= 32 q=23.0 size=       0kB time=00:00:45.66 bitrate=   0.0kbits/s speed=1.06x    frame= 1393 fps= 32 q=23.0 size=       0kB time=00:00:46.33 bitrate=   0.0kbits/s speed=1.06x    frame= 1412 fps= 32 q=23.0 size=       0kB time=00:00:46.96 bitrate=   0.0kbits/s speed=1.06x    frame= 1431 fps= 32 q=23.0 size=       0kB time=00:00:47.60 bitrate=   0.0kbits/s speed=1.06x    frame= 1450 fps= 32 q=23.0 size=       0kB time=00:00:48.23 bitrate=   0.0kbits/s speed=1.06x    frame= 1469 fps= 32 q=23.0 size=       0kB time=00:00:48.86 bitrate=   0.0kbits/s speed=1.07x    frame= 1488 fps= 32 q=23.0 size=       0kB time=00:00:49.50 bitrate=   0.0kbits/s speed=1.07x    frame= 1507 fps= 32 q=23.0 size=       0kB time=00:00:50.13 bitrate=   0.0kbits/s speed=1.07x    frame= 1526 fps= 32 q=23.0 size=       0kB time=00:00:50.76 bitrate=   0.0kbits/s speed=1.07x    frame= 1545 fps= 32 q=23.0 size=       0kB time=00:00:51.40 bitrate=   0.0kbits/s speed=1.07x    frame= 1564 fps= 32 q=23.0 size=       0kB time=00:00:52.03 bitrate=   0.0kbits/s speed=1.08x    frame= 1583 fps= 32 q=23.0 size=       0kB time=00:00:52.66 bitrate=   0.0kbits/s speed=1.08x    frame= 1602 fps= 32 q=23.0 size=       0kB time=00:00:53.30 bitrate=   0.0kbits/s speed=1.08x    frame= 1621 fps= 32 q=23.0 size=       0kB time=00:00:53.93 bitrate=   0.0kbits/s speed=1.08x    frame= 1640 fps= 33 q=23.0 size=       0kB time=00:00:54.56 bitrate=   0.0kbits/s speed=1.08x    frame= 1659 fps= 33 q=23.0 size=       0kB time=00:00:55.20 bitrate=   0.0kbits/s speed=1.08x    frame= 1678 fps= 33 q=23.0 size=       0kB time=00:00:55.83 bitrate=   0.0kbits/s speed=1.09x    frame= 1697 fps= 33 q=23.0 size=       0kB time=00:00:56.46 bitrate=   0.0kbits/s speed=1.09x    frame= 1716 fps= 33 q=23.0 size=       0kB time=00:00:57.10 bitrate=   0.0kbits/s speed=1.09x    frame= 1735 fps= 33 q=23.0 size=       0kB time=00:00:57.73 bitrate=   0.0kbits/s speed=1.09x    frame= 1754 fps= 33 q=23.0 size=       0kB time=00:00:58.36 bitrate=   0.0kbits/s speed=1.09x    frame= 1773 fps= 33 q=23.0 size=       0kB time=00:00:59.00 bitrate=   0.0kbits/s speed=1.09x    frame= 1792 fps= 33 q=23.0 size=       0kB time=00:00:59.63 bitrate=   0.0kbits/s speed=1.09x    [mp4 @ 0x5fa130578400] Starting second pass: moving the moov atom to the beginning of the file
frame= 1800 fps= 33 q=23.0 Lsize=     159kB time=00:00:59.96 bitrate=  21.7kbits/s speed= 1.1x    
video:151kB audio:0kB subtitle:0kB other streams:0kB global headers:0kB muxing overhead: 5.300566%
